<svg xmlns="http://www.w3.org/2000/svg" viewBox="0 0 32 32">
  <!-- Background rounded square -->
  <rect width="32" height="32" rx="7" fill="#162018"/>
  <!-- SwatchBook icon scaled from 24x24 to fit in ~22x22 centered in 32x32 -->
  <g transform="translate(4, 4) scale(0.916)">
    <path d="M11 17a4 4 0 0 1-8 0V5a2 2 0 0 1 2-2h4a2 2 0 0 1 2 2Z"
          fill="none" stroke="#16a34a" stroke-width="2" stroke-linecap="round" stroke-linejoin="round"/>
    <path d="M16.7 13H19a2 2 0 0 1 2 2v4a2 2 0 0 1-2 2H7m0-4h.01"
          fill="none" stroke="#16a34a" stroke-width="2" stroke-linecap="round" stroke-linejoin="round"/>
    <path d="m11 8l2.3-2.3a2.4 2.4 0 0 1 3.404.004L18.6 7.6a2.4 2.4 0 0 1 .026 3.434L9.9 19.8"
          fill="none" stroke="#16a34a" stroke-width="2" stroke-linecap="round" stroke-linejoin="round"/>
  </g>
</svg>
